# xmcd
#
# Track frame offsets:
#	150
#	19728
#	38065
#	59755
#	91199
#	111791
#	132860
#	154271
#	168861
#	185247
#	209621
#	223872
#	240272
#	254963
#
# Disc length: 3609 seconds
#
# Revision: 1
# Processed by: cddbd v1.5.2PL0 Copyright (c) Steve Scherf et al.
# Submitted via: EasyCDDAExtractor 16.0.6.1
#
DISCID=cf0e170e
DTITLE=Willie Nelson - C-075  Across The Borderline
DYEAR=1993
DGENRE=Country
TTITLE0=American Tune
TTITLE1=Getting Over You
TTITLE2=(The) Most Unoriginal Sin
TTITLE3=Don't Give Up
TTITLE4=Heartland
TTITLE5=Across The Borderline
TTITLE6=Graceland
TTITLE7=Farther Down The Line
TTITLE8=Valentine
TTITLE9=What Was It You Wanted
TTITLE10=I Love The Life I Live
TTITLE11=If I Were The Man You Wanted
TTITLE12=She's Not For You
TTITLE13=Still Is Still Moving To Me
EXTD=YEAR: 1993\n
EXTT0=
EXTT1=
EXTT2=
EXTT3=
EXTT4=
EXTT5=
EXTT6=
EXTT7=
EXTT8=
EXTT9=
EXTT10=
EXTT11=
EXTT12=
EXTT13=
PLAYORDER=
